<mxfile host="app.diagrams.net" modified="2024-05-27T08:16:13.727Z" agent="Mozilla/5.0 (Macintosh; Intel Mac OS X 10_15_7) AppleWebKit/537.36 (KHTML, like Gecko) Chrome/125.0.0.0 Safari/537.36 Edg/125.0.0.0" etag="AtmIbE1PSYFn4F2BQbuU" version="24.4.8" type="github">
  <diagram name="Page-1" id="QNHFspkT7Qd_Ybf9J7lu">
    <mxGraphModel dx="663" dy="2246" grid="1" gridSize="10" guides="1" tooltips="1" connect="1" arrows="1" fold="1" page="1" pageScale="1" pageWidth="850" pageHeight="1100" math="0" shadow="0">
      <root>
        <mxCell id="0" />
        <mxCell id="1" parent="0" />
        <mxCell id="FEBXk1Seame9rGR3UjBY-1" value="Person" style="swimlane;fontStyle=1;align=center;verticalAlign=top;childLayout=stackLayout;horizontal=1;startSize=27.9;horizontalStack=0;resizeParent=1;resizeParentMax=0;resizeLast=0;collapsible=0;marginBottom=0;" vertex="1" parent="1">
          <mxGeometry x="100" y="304" width="181" height="147.9" as="geometry" />
        </mxCell>
        <mxCell id="FEBXk1Seame9rGR3UjBY-2" value="+String name" style="text;strokeColor=none;fillColor=none;align=left;verticalAlign=top;spacingLeft=4;spacingRight=4;overflow=hidden;rotatable=0;points=[[0,0.5],[1,0.5]];portConstraint=eastwest;" vertex="1" parent="FEBXk1Seame9rGR3UjBY-1">
          <mxGeometry y="27.9" width="181" height="28" as="geometry" />
        </mxCell>
        <mxCell id="FEBXk1Seame9rGR3UjBY-3" value="+String phoneNumber" style="text;strokeColor=none;fillColor=none;align=left;verticalAlign=top;spacingLeft=4;spacingRight=4;overflow=hidden;rotatable=0;points=[[0,0.5],[1,0.5]];portConstraint=eastwest;" vertex="1" parent="FEBXk1Seame9rGR3UjBY-1">
          <mxGeometry y="55.9" width="181" height="28" as="geometry" />
        </mxCell>
        <mxCell id="FEBXk1Seame9rGR3UjBY-4" value="+String emailAddress" style="text;strokeColor=none;fillColor=none;align=left;verticalAlign=top;spacingLeft=4;spacingRight=4;overflow=hidden;rotatable=0;points=[[0,0.5],[1,0.5]];portConstraint=eastwest;" vertex="1" parent="FEBXk1Seame9rGR3UjBY-1">
          <mxGeometry y="83.9" width="181" height="28" as="geometry" />
        </mxCell>
        <mxCell id="FEBXk1Seame9rGR3UjBY-5" style="line;strokeWidth=1;fillColor=none;align=left;verticalAlign=middle;spacingTop=-1;spacingLeft=3;spacingRight=3;rotatable=0;labelPosition=right;points=[];portConstraint=eastwest;strokeColor=inherit;" vertex="1" parent="FEBXk1Seame9rGR3UjBY-1">
          <mxGeometry y="111.9" width="181" height="8" as="geometry" />
        </mxCell>
        <mxCell id="FEBXk1Seame9rGR3UjBY-6" value="+purchaseParkingPass()" style="text;strokeColor=none;fillColor=none;align=left;verticalAlign=top;spacingLeft=4;spacingRight=4;overflow=hidden;rotatable=0;points=[[0,0.5],[1,0.5]];portConstraint=eastwest;" vertex="1" parent="FEBXk1Seame9rGR3UjBY-1">
          <mxGeometry y="119.9" width="181" height="28" as="geometry" />
        </mxCell>
        <mxCell id="FEBXk1Seame9rGR3UjBY-7" value="Student" style="swimlane;fontStyle=1;align=center;verticalAlign=top;childLayout=stackLayout;horizontal=1;startSize=27.9;horizontalStack=0;resizeParent=1;resizeParentMax=0;resizeLast=0;collapsible=0;marginBottom=0;" vertex="1" parent="1">
          <mxGeometry x="20" y="501" width="164" height="147.9" as="geometry" />
        </mxCell>
        <mxCell id="FEBXk1Seame9rGR3UjBY-8" value="+int studentNumber" style="text;strokeColor=none;fillColor=none;align=left;verticalAlign=top;spacingLeft=4;spacingRight=4;overflow=hidden;rotatable=0;points=[[0,0.5],[1,0.5]];portConstraint=eastwest;" vertex="1" parent="FEBXk1Seame9rGR3UjBY-7">
          <mxGeometry y="27.9" width="164" height="28" as="geometry" />
        </mxCell>
        <mxCell id="FEBXk1Seame9rGR3UjBY-9" value="+int averageMark" style="text;strokeColor=none;fillColor=none;align=left;verticalAlign=top;spacingLeft=4;spacingRight=4;overflow=hidden;rotatable=0;points=[[0,0.5],[1,0.5]];portConstraint=eastwest;" vertex="1" parent="FEBXk1Seame9rGR3UjBY-7">
          <mxGeometry y="55.9" width="164" height="28" as="geometry" />
        </mxCell>
        <mxCell id="FEBXk1Seame9rGR3UjBY-10" style="line;strokeWidth=1;fillColor=none;align=left;verticalAlign=middle;spacingTop=-1;spacingLeft=3;spacingRight=3;rotatable=0;labelPosition=right;points=[];portConstraint=eastwest;strokeColor=inherit;" vertex="1" parent="FEBXk1Seame9rGR3UjBY-7">
          <mxGeometry y="83.9" width="164" height="8" as="geometry" />
        </mxCell>
        <mxCell id="FEBXk1Seame9rGR3UjBY-11" value="+isEligibleToEnrol()" style="text;strokeColor=none;fillColor=none;align=left;verticalAlign=top;spacingLeft=4;spacingRight=4;overflow=hidden;rotatable=0;points=[[0,0.5],[1,0.5]];portConstraint=eastwest;" vertex="1" parent="FEBXk1Seame9rGR3UjBY-7">
          <mxGeometry y="91.9" width="164" height="28" as="geometry" />
        </mxCell>
        <mxCell id="FEBXk1Seame9rGR3UjBY-12" value="+getSeminarsTaken()" style="text;strokeColor=none;fillColor=none;align=left;verticalAlign=top;spacingLeft=4;spacingRight=4;overflow=hidden;rotatable=0;points=[[0,0.5],[1,0.5]];portConstraint=eastwest;" vertex="1" parent="FEBXk1Seame9rGR3UjBY-7">
          <mxGeometry y="119.9" width="164" height="28" as="geometry" />
        </mxCell>
        <mxCell id="FEBXk1Seame9rGR3UjBY-13" value="Professor" style="swimlane;fontStyle=1;align=center;verticalAlign=top;childLayout=stackLayout;horizontal=1;startSize=28.8;horizontalStack=0;resizeParent=1;resizeParentMax=0;resizeLast=0;collapsible=0;marginBottom=0;" vertex="1" parent="1">
          <mxGeometry x="234" y="535" width="90" height="71.8" as="geometry" />
        </mxCell>
        <mxCell id="FEBXk1Seame9rGR3UjBY-14" value="+int salary" style="text;strokeColor=none;fillColor=none;align=left;verticalAlign=top;spacingLeft=4;spacingRight=4;overflow=hidden;rotatable=0;points=[[0,0.5],[1,0.5]];portConstraint=eastwest;" vertex="1" parent="FEBXk1Seame9rGR3UjBY-13">
          <mxGeometry y="28.8" width="90" height="29" as="geometry" />
        </mxCell>
        <mxCell id="FEBXk1Seame9rGR3UjBY-15" style="line;strokeWidth=1;fillColor=none;align=left;verticalAlign=middle;spacingTop=-1;spacingLeft=3;spacingRight=3;rotatable=0;labelPosition=right;points=[];portConstraint=eastwest;strokeColor=inherit;" vertex="1" parent="FEBXk1Seame9rGR3UjBY-13">
          <mxGeometry y="57.8" width="90" height="14" as="geometry" />
        </mxCell>
        <mxCell id="FEBXk1Seame9rGR3UjBY-16" value="Address" style="swimlane;fontStyle=1;align=center;verticalAlign=top;childLayout=stackLayout;horizontal=1;startSize=25.875;horizontalStack=0;resizeParent=1;resizeParentMax=0;resizeLast=0;collapsible=0;marginBottom=0;" vertex="1" parent="1">
          <mxGeometry x="121" y="20" width="138" height="215.875" as="geometry" />
        </mxCell>
        <mxCell id="FEBXk1Seame9rGR3UjBY-17" value="+String street" style="text;strokeColor=none;fillColor=none;align=left;verticalAlign=top;spacingLeft=4;spacingRight=4;overflow=hidden;rotatable=0;points=[[0,0.5],[1,0.5]];portConstraint=eastwest;" vertex="1" parent="FEBXk1Seame9rGR3UjBY-16">
          <mxGeometry y="25.875" width="138" height="26" as="geometry" />
        </mxCell>
        <mxCell id="FEBXk1Seame9rGR3UjBY-18" value="+String city" style="text;strokeColor=none;fillColor=none;align=left;verticalAlign=top;spacingLeft=4;spacingRight=4;overflow=hidden;rotatable=0;points=[[0,0.5],[1,0.5]];portConstraint=eastwest;" vertex="1" parent="FEBXk1Seame9rGR3UjBY-16">
          <mxGeometry y="51.875" width="138" height="26" as="geometry" />
        </mxCell>
        <mxCell id="FEBXk1Seame9rGR3UjBY-19" value="+String state" style="text;strokeColor=none;fillColor=none;align=left;verticalAlign=top;spacingLeft=4;spacingRight=4;overflow=hidden;rotatable=0;points=[[0,0.5],[1,0.5]];portConstraint=eastwest;" vertex="1" parent="FEBXk1Seame9rGR3UjBY-16">
          <mxGeometry y="77.875" width="138" height="26" as="geometry" />
        </mxCell>
        <mxCell id="FEBXk1Seame9rGR3UjBY-20" value="+int postalCode" style="text;strokeColor=none;fillColor=none;align=left;verticalAlign=top;spacingLeft=4;spacingRight=4;overflow=hidden;rotatable=0;points=[[0,0.5],[1,0.5]];portConstraint=eastwest;" vertex="1" parent="FEBXk1Seame9rGR3UjBY-16">
          <mxGeometry y="103.875" width="138" height="26" as="geometry" />
        </mxCell>
        <mxCell id="FEBXk1Seame9rGR3UjBY-21" value="+String country" style="text;strokeColor=none;fillColor=none;align=left;verticalAlign=top;spacingLeft=4;spacingRight=4;overflow=hidden;rotatable=0;points=[[0,0.5],[1,0.5]];portConstraint=eastwest;" vertex="1" parent="FEBXk1Seame9rGR3UjBY-16">
          <mxGeometry y="129.875" width="138" height="26" as="geometry" />
        </mxCell>
        <mxCell id="FEBXk1Seame9rGR3UjBY-22" style="line;strokeWidth=1;fillColor=none;align=left;verticalAlign=middle;spacingTop=-1;spacingLeft=3;spacingRight=3;rotatable=0;labelPosition=right;points=[];portConstraint=eastwest;strokeColor=inherit;" vertex="1" parent="FEBXk1Seame9rGR3UjBY-16">
          <mxGeometry y="155.875" width="138" height="8" as="geometry" />
        </mxCell>
        <mxCell id="FEBXk1Seame9rGR3UjBY-23" value="-validate()" style="text;strokeColor=none;fillColor=none;align=left;verticalAlign=top;spacingLeft=4;spacingRight=4;overflow=hidden;rotatable=0;points=[[0,0.5],[1,0.5]];portConstraint=eastwest;" vertex="1" parent="FEBXk1Seame9rGR3UjBY-16">
          <mxGeometry y="163.875" width="138" height="26" as="geometry" />
        </mxCell>
        <mxCell id="FEBXk1Seame9rGR3UjBY-24" value="+outputAsLabel()" style="text;strokeColor=none;fillColor=none;align=left;verticalAlign=top;spacingLeft=4;spacingRight=4;overflow=hidden;rotatable=0;points=[[0,0.5],[1,0.5]];portConstraint=eastwest;" vertex="1" parent="FEBXk1Seame9rGR3UjBY-16">
          <mxGeometry y="189.875" width="138" height="26" as="geometry" />
        </mxCell>
        <mxCell id="FEBXk1Seame9rGR3UjBY-25" value="" style="curved=1;startArrow=block;startSize=16;startFill=0;endArrow=none;exitX=0.13356211535771728;exitY=0.9932432432432432;entryX=0.4987614329268293;entryY=0;rounded=0;" edge="1" parent="1" source="FEBXk1Seame9rGR3UjBY-1" target="FEBXk1Seame9rGR3UjBY-7">
          <mxGeometry relative="1" as="geometry">
            <Array as="points">
              <mxPoint x="102" y="476" />
            </Array>
          </mxGeometry>
        </mxCell>
        <mxCell id="FEBXk1Seame9rGR3UjBY-26" value="" style="curved=1;startArrow=block;startSize=16;startFill=0;endArrow=none;exitX=0.8630064274599624;exitY=0.9932432432432432;entryX=0.4953559027777778;entryY=-0.003125;rounded=0;" edge="1" parent="1" source="FEBXk1Seame9rGR3UjBY-1" target="FEBXk1Seame9rGR3UjBY-13">
          <mxGeometry relative="1" as="geometry">
            <Array as="points">
              <mxPoint x="279" y="476" />
            </Array>
          </mxGeometry>
        </mxCell>
        <mxCell id="FEBXk1Seame9rGR3UjBY-27" value="lives at" style="curved=1;startArrow=open;startSize=12;endArrow=none;exitX=0.501372848731884;exitY=1;entryX=0.4982842714088398;entryY=-0.0033783783783783786;rounded=0;" edge="1" parent="1" source="FEBXk1Seame9rGR3UjBY-16" target="FEBXk1Seame9rGR3UjBY-1">
          <mxGeometry relative="1" as="geometry">
            <Array as="points" />
          </mxGeometry>
        </mxCell>
        <mxCell id="FEBXk1Seame9rGR3UjBY-28" value="1" style="edgeLabel;resizable=0;labelBackgroundColor=none;fontSize=12;align=right;verticalAlign=top;" vertex="1" parent="FEBXk1Seame9rGR3UjBY-27">
          <mxGeometry x="-1" relative="1" as="geometry" />
        </mxCell>
        <mxCell id="FEBXk1Seame9rGR3UjBY-29" value="0..1" style="edgeLabel;resizable=0;labelBackgroundColor=none;fontSize=12;align=left;verticalAlign=bottom;" vertex="1" parent="FEBXk1Seame9rGR3UjBY-27">
          <mxGeometry x="1" relative="1" as="geometry" />
        </mxCell>
      </root>
    </mxGraphModel>
  </diagram>
</mxfile>
